Coordinates
version=1
nRows=22
nColumns=24
inDegrees=yes

Units are S.I. units (second, meters, Newtons, ...)
Angles are in degrees.

endheader
time	pelvis_tilt	pelvis_list	pelvis_rotation	pelvis_tx	pelvis_ty	pelvis_tz	hip_flexion_r	hip_adduction_r	hip_rotation_r	knee_angle_r	ankle_angle_r	subtalar_angle_r	mtp_angle_r	hip_flexion_l	hip_adduction_l	hip_rotation_l	knee_angle_l	ankle_angle_l	subtalar_angle_l	mtp_angle_l	lumbar_extension	lumbar_bending	lumbar_rotation
      0.61200000	     -5.86916410	      2.50881353	     11.97179748	     -0.73492705	      0.86805560	      0.26286757	     36.61343870	     -6.05670406	    -11.17764254	    -10.04295553	      7.56851211	      3.96327654	      7.78011744	    -16.70782272	      1.89225651	      7.99728249	     -9.44483641	     13.47717406	      3.33834218	     15.90317558	     -1.98306482	     -4.09643248	    -14.06894204
      0.61616667	     -5.92511190	      2.43043565	     11.99227087	     -0.72900670	      0.86696201	      0.26323748	     36.77108388	     -5.92723671	    -11.05959961	    -10.77817192	      7.41543463	      3.74704321	      7.72051678	    -16.76184776	      1.72478597	      7.88214859	     -9.97469552	     13.37918244	      3.50788383	     15.98980210	     -1.87636454	     -3.95547044	    -13.97579282
      0.62033333	     -5.96773671	      2.33055972	     12.00478986	     -0.72301102	      0.86593199	      0.26363400	     36.88982125	     -5.76295450	    -10.93884050	    -11.48627651	      7.23728782	      3.51462537	      7.69373837	    -16.82668660	      1.53287342	      7.76177348	    -10.50357904	     13.18610575	      3.59355690	     16.08430899	     -1.78434851	     -3.78072734	    -13.90067746
      0.62450000	     -5.96476429	      2.22700211	     12.01281157	     -0.71694843	      0.86501016	      0.26402948	     36.96125391	     -5.59278715	    -10.91739287	    -12.22191315	      7.00362099	      3.33308185	      7.68671246	    -16.95058817	      1.33288223	      7.69654275	    -11.01194903	     12.97139911	      3.57549117	     16.12609254	     -1.74839144	     -3.61037461	    -13.85844181
      0.62866667	     -6.06145382	      2.13296025	     11.99429967	     -0.71088238	      0.86396190	      0.26452738	     37.12105321	     -5.40478351	    -10.69301225	    -12.91167634	      6.63748016	      2.91382013	      7.68881286	    -16.91805015	      1.16362273	      7.50887074	    -11.62575822	     12.72324094	      3.75754400	     16.29926382	     -1.56418483	     -3.44937128	    -13.68287734
      0.63283333	     -6.08620286	      2.00342976	     11.96430228	     -0.70473116	      0.86304868	      0.26506076	     37.19794630	     -5.16524063	    -10.55917838	    -13.59872301	      6.21700039	      2.43407017	      7.72780348	    -16.95326924	      0.94083754	      7.30654892	    -12.25158346	     12.55844573	      3.95354652	     16.67592049	     -1.46988341	     -3.24641262	    -13.50343308
      0.63700000	     -6.13709763	      1.88195424	     11.93060938	     -0.69854473	      0.86215371	      0.26560472	     37.30005715	     -4.93497943	    -10.41311307	    -14.29336737	      5.76204608	      1.99715906	      7.79481227	    -16.95881472	      0.73783072	      7.14550763	    -12.87385706	     12.24514034	      4.01461561	     17.10925436	     -1.34416133	     -3.05056562	    -13.35903178
      0.64116667	     -6.19390787	      1.75297893	     11.88819058	     -0.69230123	      0.86131279	      0.26614559	     37.40198926	     -4.70077317	    -10.30920670	    -14.98258996	      5.29439990	      1.71427296	      7.83517712	    -16.95386269	      0.53730978	      7.02851098	    -13.49815114	     11.79910023	      3.99865760	     17.34111456	     -1.22413098	     -2.83679191	    -13.25948439
      0.64533333	     -6.24028699	      1.61851281	     11.82789203	     -0.68602987	      0.86049102	      0.26676500	     37.49879622	     -4.43263146	    -10.13920852	    -15.67938823	      4.74023459	      1.07588736	      7.94119880	    -16.93264813	      0.32815346	      6.85514651	    -14.18841549	     11.50900607	      4.04377722	     17.84361093	     -1.07583571	     -2.63570246	    -13.04396663
      0.64950000	     -6.28881264	      1.46706261	     11.76302773	     -0.67970847	      0.85971636	      0.26738416	     37.59924592	     -4.16099698	    -10.04281793	    -16.38493531	      4.19096037	      0.72154881	      9.28096121	    -16.86782035	      0.09118500	      6.56777728	    -14.92861988	     11.01753836	      4.16142661	     23.32209774	     -0.95729523	     -2.39914364	    -12.94003760
      0.65366667	     -6.36525638	      1.32098069	     11.69019324	     -0.67334897	      0.85897008	      0.26800855	     37.73084538	     -3.89076972	     -9.90526432	    -17.10385119	      3.64587522	      0.26982947	      9.27270852	    -16.80775607	     -0.10608562	      6.50326373	    -15.61598389	     10.45971280	      4.00745370	     23.36405267	     -0.79751520	     -2.17034911	    -12.76968692
      0.65783333	     -6.43590731	      1.17990957	     11.60483826	     -0.66697887	      0.85826128	      0.26867225	     37.86802456	     -3.61431941	     -9.74401501	    -17.84972690	      3.08550219	     -0.29987873	      9.28038200	    -16.70955535	     -0.29870921	      6.37358031	    -16.39173929	      9.98525533	      3.93333611	     23.47810520	     -0.62716942	     -1.95432566	    -12.55271791
      0.66200000	     -6.51322399	      1.02456772	     11.51274281	     -0.66057069	      0.85759354	      0.26935906	     38.01605424	     -3.32410950	     -9.58802227	    -18.60969640	      2.55123023	     -0.80685197	      9.30160404	    -16.58343038	     -0.50555768	      6.22586487	    -17.19280272	      9.44835422	      3.88714090	     23.65199351	     -0.45865027	     -1.71978625	    -12.35402180
      0.66616667	     -6.59702179	      0.86348785	     11.41368478	     -0.65414143	      0.85695730	      0.27004650	     38.18219536	     -3.03090596	     -9.43881938	    -19.40091146	      2.06109820	     -1.28345665	      9.32859026	    -16.42175509	     -0.71039108	      6.08455357	    -18.04842513	      8.86241508	      3.82358050	     23.86126111	     -0.27923404	     -1.47722108	    -12.16308048
      0.67033333	     -6.68215346	      0.70363744	     11.30798081	     -0.64769094	      0.85636805	      0.27075346	     38.35850070	     -2.73712688	     -9.28014830	    -20.22283681	      1.61625809	     -1.75282883	      9.35947697	    -16.23518895	     -0.91163672	      5.93646011	    -18.93816549	      8.25522644	      3.75691871	     24.12142847	     -0.09430182	     -1.23146822	    -11.95645911
      0.67450000	     -6.76974500	      0.53490057	     11.19722259	     -0.64121591	      0.85582275	      0.27146672	     38.54562704	     -2.43653595	     -9.12844341	    -21.07271524	      1.23748714	     -2.17862275	      9.38678516	    -16.01656564	     -1.11775368	      5.78803887	    -19.87750556	      7.61116713	      3.68712767	     24.40487519	      0.09326241	     -0.97516111	    -11.76228515
      0.67866667	     -6.76900522	      0.29342167	     11.05112840	     -0.63465319	      0.85546002	      0.27226871	     38.60415342	     -2.01833377	     -8.96111207	    -21.83390753	      0.83935418	     -2.64120486	      9.58888469	    -15.85742022	     -1.43321476	      5.46753316	    -20.85129571	      6.91342947	      3.74772448	     26.82043168	      0.17643593	     -0.60822601	    -11.38409656
      0.68283333	     -6.89220349	      0.14804020	     10.95979251	     -0.62817933	      0.85496099	      0.27292421	     38.86079085	     -1.77405412	     -8.83696733	    -22.80211777	      0.74126174	     -2.88566227	      9.58830412	    -15.55153041	     -1.59509611	      5.42925029	    -21.86270611	      6.13722302	      3.55893996	     26.90777986	      0.40818550	     -0.37570199	    -11.37476954
      0.68700000	     -6.98432642	     -0.00101601	     10.84569983	     -0.62171618	      0.85454236	      0.27361782	     39.08654355	     -1.50468857	     -8.69271005	    -23.76915684	      0.58821134	     -3.21230790	      9.57333505	    -15.23396092	     -1.76492012	      5.31633527	    -22.95541136	      5.42832539	      3.40972604	     27.07611192	      0.59593605	     -0.14740984	    -11.20785247
      0.69116667	     -7.04655711	     -0.18397481	     10.72215627	     -0.61520888	      0.85422284	      0.27434119	     39.26166138	     -1.18760272	     -8.54704985	    -24.70510151	      0.52980583	     -3.48291144	      9.54474546	    -14.91996312	     -1.98174329	      5.15931109	    -24.07709071	      4.66600799	      3.31108493	     27.27142321	      0.75137655	      0.13696221	    -11.01795396
      0.69533333	     -7.09746652	     -0.37809928	     10.59868086	     -0.60869309	      0.85396839	      0.27505591	     39.41877691	     -0.85945538	     -8.41217629	    -25.64028341	      0.55138263	     -3.71295320	      9.50342719	    -14.58064534	     -2.21529487	      4.97567251	    -25.25144922	      3.84624172	      3.23023276	     27.46665614	      0.89987705	      0.43837223	    -10.84860622
      0.69950000	     -7.13370425	     -0.57873216	     10.47680545	     -0.60218289	      0.85378079	      0.27577973	     39.55084596	     -0.52161023	     -8.28363771	    -26.56762440	      0.65502898	     -3.90963855	      9.43720069	    -14.22346612	     -2.46270319	      4.78376783	    -26.46965956	      3.02735077	      3.16000924	     27.69355917	      1.02870178	      0.74658381	    -10.66845919
